<svg width="1024" height="1024" viewBox="0 0 1024 1024" fill="none" xmlns="http://www.w3.org/2000/svg">
<path d="M257.7 752C259.7 752 261.7 751.8 263.7 751.5L431.9 722C433.9 721.6 435.8 720.7 437.2 719.2L861.1 295.3C862.027 294.375 862.763 293.276 863.264 292.066C863.766 290.857 864.024 289.56 864.024 288.25C864.024 286.94 863.766 285.643 863.264 284.434C862.763 283.224 862.027 282.125 861.1 281.2L694.9 114.9C693 113 690.5 112 687.8 112C685.1 112 682.6 113 680.7 114.9L256.8 538.8C255.3 540.3 254.4 542.1 254 544.1L224.5 712.3C223.527 717.657 223.875 723.171 225.513 728.363C227.151 733.556 230.029 738.271 233.9 742.1C240.5 748.5 248.8 752 257.7 752V752ZM325.1 577.6L687.8 215L761.1 288.3L398.4 650.9L309.5 666.6L325.1 577.6V577.6ZM880 836H144C126.3 836 112 850.3 112 868V904C112 908.4 115.6 912 120 912H904C908.4 912 912 908.4 912 904V868C912 850.3 897.7 836 880 836Z" fill="black"/>
</svg>
