<svg xmlns="http://www.w3.org/2000/svg" width="133" height="26" fill="none" viewBox="0 0 133 26"><path stroke="#fff" stroke-width="1.5" d="M66.8844 7.51746L1.5 24.5"/><path stroke="#fff" stroke-width="1.5" d="M66.5 7.51746L131.5 24.5"/><path fill="#fff" d="M26.7196 23.2605V25.2724H0V23.2605H8.64768C6.60047 22.2252 4.85917 21.2015 3.63556 19.2014C2.43547 17.2012 1.83543 14.9423 1.83543 12.4244C1.83543 8.82416 3.08257 5.85924 5.57687 3.52966C8.07117 1.17655 11.0949 0 14.6481 0C18.2248 0 21.1898 1.03537 23.5429 3.10611L21.3192 6.2828C20.3544 5.45922 19.3779 4.89447 18.3896 4.58856C17.4248 4.25913 16.2953 4.09441 15.0011 4.09441C12.4832 4.09441 10.3772 4.84741 8.68298 6.3534C7.01227 7.85939 6.17692 9.91836 6.17692 12.5303C6.17692 15.1423 7.0005 17.2483 8.64768 18.8484C10.2949 20.425 12.2832 21.2133 14.6128 21.2133C16.9659 21.2133 18.9308 20.7074 20.5074 19.6955V12.9186H24.6724V21.3545C23.8017 22.3193 22.5663 22.6252 21.3192 23.2605H26.7196Z"/><path fill="#fff" d="M53.2922 23.2605V25.2724H45.6681L39.7735 16.9777H34.3026V25.2724H26.7138L26.7196 23.2605H30.1376V0.600042H39.3147C43.0797 0.600042 45.774 1.23538 47.3976 2.50606C49.0213 3.77674 49.8331 5.81218 49.8331 8.61238C49.8331 12.6833 48.0565 15.2482 44.5033 16.3071L49.8331 23.2605H53.2922ZM39.4912 13.201C41.8443 13.201 43.4444 12.8362 44.2915 12.1068C45.1386 11.3773 45.5622 10.2125 45.5622 8.61238C45.5622 6.98874 45.1269 5.88278 44.2562 5.2945C43.3856 4.68269 41.8325 4.37679 39.5971 4.37679H34.3026V13.201H39.4912Z"/><path fill="#fff" d="M82.0427 23.2605V25.2724H52.3935V23.2605H56.859L60.7358 22.2723C58.8062 21.1663 57.0173 21.1309 55.8878 19.2014C54.7819 17.2718 54.2289 15.1187 54.2289 12.7421C54.2289 9.1183 55.476 6.09456 57.9703 3.67085C60.4646 1.22362 63.5472 0 67.2181 0C70.8889 0 73.9715 1.22362 76.4658 3.67085C78.9601 6.09456 80.2072 9.1183 80.2072 12.7421C80.2072 15.0952 79.6425 17.2483 78.513 19.2014C77.407 21.1545 75.5879 22.1781 73.6583 23.2605H82.0427ZM73.395 6.42399C71.7243 4.68269 69.6653 3.81204 67.2181 3.81204C64.7708 3.81204 62.7001 4.68269 61.0059 6.42399C59.3351 8.16529 58.4998 10.2831 58.4998 12.7774C58.4998 15.2482 59.3351 17.3542 61.0059 19.0955C62.7001 20.8368 64.7708 21.7074 67.2181 21.7074C69.6653 21.7074 71.7243 20.8368 73.395 19.0955C75.0892 17.3542 75.9363 15.2482 75.9363 12.7774C75.9363 10.2831 75.0892 8.16529 73.395 6.42399Z"/><path fill="#fff" d="M111.686 23.2605V25.2724H82.0371L82.0427 23.2605H86.2501H90.4576C88.528 22.1546 86.661 21.1309 85.5315 19.2014C84.4255 17.2718 83.8726 15.1187 83.8726 12.7421C83.8726 9.1183 85.1197 6.09456 87.614 3.67085C90.1083 1.22362 93.1909 0 96.8617 0C100.533 0 103.615 1.22362 106.109 3.67085C108.604 6.09456 109.851 9.1183 109.851 12.7421C109.851 15.0952 109.286 17.2483 108.157 19.2014C107.051 21.1545 105.31 22.1781 103.38 23.2605H111.686ZM103.039 6.42399C101.368 4.68269 99.309 3.81204 96.8617 3.81204C94.4145 3.81204 92.3438 4.68269 90.6495 6.42399C88.9788 8.16529 88.1435 10.2831 88.1435 12.7774C88.1435 15.2482 88.9788 17.3542 90.6495 19.0955C92.3438 20.8368 94.4145 21.7074 96.8617 21.7074C99.309 21.7074 101.368 20.8368 103.039 19.0955C104.733 17.3542 105.58 15.2482 105.58 12.7774C105.58 10.2831 104.733 8.16529 103.039 6.42399Z"/><path fill="#fff" d="M133 23.2605V25.2724H111.681V23.2605H115.969H120.258V4.41208H112.775V0.600042H131.906V4.41208H124.423V23.2605H128.711H133Z"/></svg>