<svg width="26" height="23" viewBox="0 0 26 23" fill="none" xmlns="http://www.w3.org/2000/svg">
<path d="M13.798 20.4096C13.798 21.6634 12.7816 22.6798 11.5277 22.6798C10.2739 22.6798 9.25745 21.6634 9.25745 20.4096C9.25745 19.1557 10.2739 18.1393 11.5277 18.1393C12.7816 18.1393 13.798 19.1557 13.798 20.4096ZM10.6196 20.4096C10.6196 20.9111 11.0262 21.3177 11.5277 21.3177C12.0293 21.3177 12.4358 20.9111 12.4358 20.4096C12.4358 19.908 12.0293 19.5014 11.5277 19.5014C11.0262 19.5014 10.6196 19.908 10.6196 20.4096Z" fill="white"/>
<path d="M21.2831 20.4096C21.2831 21.6634 20.2667 22.6798 19.0128 22.6798C17.759 22.6798 16.7426 21.6634 16.7426 20.4096C16.7426 19.1557 17.759 18.1393 19.0128 18.1393C20.2667 18.1393 21.2831 19.1557 21.2831 20.4096ZM18.1047 20.4096C18.1047 20.9111 18.5113 21.3177 19.0128 21.3177C19.5144 21.3177 19.9209 20.9111 19.9209 20.4096C19.9209 19.908 19.5144 19.5014 19.0128 19.5014C18.5113 19.5014 18.1047 19.908 18.1047 20.4096Z" fill="white"/>
<path d="M22.0811 17.4158H9.33264L7.86071 16.3181L8.70894 14.4969M8.70894 14.4969H21.7069L25 4.04366H5.56549M8.70894 14.4969L5.56549 4.04366M5.56549 4.04366L4.64241 1H1" stroke="white" stroke-width="2" stroke-linecap="round" stroke-linejoin="round"/>
</svg>
