<svg width="800" height="800" viewBox="0 0 800 800" fill="none" xmlns="http://www.w3.org/2000/svg">
<path d="M145.7 640C147.7 640 149.7 639.8 151.7 639.5L319.9 610C321.9 609.6 323.8 608.7 325.2 607.2L749.1 183.3C750.027 182.375 750.763 181.276 751.264 180.066C751.766 178.857 752.024 177.56 752.024 176.25C752.024 174.94 751.766 173.643 751.264 172.434C750.763 171.224 750.027 170.125 749.1 169.2L582.9 2.9C581 1 578.5 0 575.8 0C573.1 0 570.6 1 568.7 2.9L144.8 426.8C143.3 428.3 142.4 430.1 142 432.1L112.5 600.3C111.527 605.657 111.875 611.171 113.513 616.363C115.151 621.556 118.029 626.271 121.9 630.1C128.5 636.5 136.8 640 145.7 640V640ZM213.1 465.6L575.8 103L649.1 176.3L286.4 538.9L197.5 554.6L213.1 465.6V465.6ZM768 724H32C14.3 724 0 738.3 0 756V792C0 796.4 3.6 800 8 800H792C796.4 800 800 796.4 800 792V756C800 738.3 785.7 724 768 724Z" fill="black"/>
</svg>
